<svg xmlns="http://www.w3.org/2000/svg" width="100" height="120" viewBox="0 0 100 120"><ellipse cx="50" cy="107" rx="37" ry="7" fill="#30404a" opacity=".2"/><path d="M59 74q51-24 17-57l-15 1 12 15q13 18-20 29" fill="#b89453" stroke="#584736" stroke-width="5"/><path d="m31 83-22 9m24 1-19 13m47-23 25 9m-24 1 16 13" stroke="#85683f" stroke-width="6"/><ellipse cx="48" cy="82" rx="27" ry="20" fill="#c3a064" stroke="#584736" stroke-width="3"/><path d="M25 76 7 55 5 38l15 12 8 21m40 5 20-23 6-16-17 11-12 21" fill="#c3a064" stroke="#584736" stroke-width="5"/><circle cx="38" cy="74" r="4" fill="#423e35"/><circle cx="56" cy="74" r="4" fill="#423e35"/></svg>